<mxfile host="www.draw.io" modified="2024-03-14T14:23:58.195Z" agent="Mozilla/5.0 (Windows NT 10.0; Win64; x64) AppleWebKit/537.36 (KHTML, like Gecko) Chrome/122.0.0.0 Safari/537.36 Edg/122.0.0.0" etag="2YRMHR7KiiQjxhoCPG2P" version="24.0.6" type="device">
  <diagram name="Page-1" id="pecr10XqemCJJRHZHDNp">
    <mxGraphModel dx="326" dy="199" grid="1" gridSize="10" guides="1" tooltips="1" connect="1" arrows="1" fold="1" page="1" pageScale="1" pageWidth="850" pageHeight="1100" math="0" shadow="0">
      <root>
        <mxCell id="0" />
        <mxCell id="1" parent="0" />
        <mxCell id="pfTZrpAhHnZ8djAms5l4-2" value="&lt;font style=&quot;font-size: 6px;&quot;&gt;7 features&lt;/font&gt;" style="rounded=0;whiteSpace=wrap;html=1;" vertex="1" parent="1">
          <mxGeometry x="140" y="330" width="40" height="20" as="geometry" />
        </mxCell>
      </root>
    </mxGraphModel>
  </diagram>
</mxfile>
